<svg width="166" height="25" viewBox="0 0 166 25" fill="none" xmlns="http://www.w3.org/2000/svg">
<path d="M15.7029 3.22023L17.1132 5.66298L27.7032 24.0057H21.2535L13.8882 11.249L11.3035 15.7259H4.85352L13.8882 0.0774269L15.7029 3.22023Z" fill="white"/>
<path d="M10.6722 24.0179H0.0385742L3.25604 18.4452H13.8896L10.6722 24.0179Z" fill="#c72020"/>
<path d="M29.4219 19.4521H41.4424V23.9727H31.1875L23.874 11.3057V0H29.4219V19.4521Z" fill="white"/>
<path d="M47.3926 17.7258L52.5298 6.30971H54.6173L59.7709 17.7258H57.5529L53.1332 7.43501H53.9813L49.5779 17.7258H47.3926ZM49.7573 15.0838L50.3281 13.4203H56.4928L57.0636 15.0838H49.7573Z" fill="white"/>
<path d="M62.0382 17.7258V6.30971H64.1583V15.9318H70.1273V17.7258H62.0382Z" fill="white"/>
<path d="M73.8653 17.7258V8.10366H70.0817V6.30971H79.769V8.10366H75.9854V17.7258H73.8653Z" fill="white"/>
<path d="M79.9877 17.7258L85.1249 6.30971H87.2124L92.3659 17.7258H90.148L85.7283 7.43501H86.5764L82.173 17.7258H79.9877ZM82.3524 15.0838L82.9232 13.4203H89.0879L89.6587 15.0838H82.3524Z" fill="white"/>
<path d="M94.6332 17.7258V6.30971H99.3301C100.341 6.30971 101.206 6.47279 101.923 6.79897C102.652 7.12514 103.212 7.59266 103.603 8.20152C103.994 8.81037 104.19 9.53339 104.19 10.3706C104.19 11.2078 103.994 11.9308 103.603 12.5396C103.212 13.1376 102.652 13.5997 101.923 13.9259C101.206 14.2412 100.341 14.3988 99.3301 14.3988H95.8075L96.7534 13.4366V17.7258H94.6332ZM102.103 17.7258L99.216 13.5834H101.483L104.386 17.7258H102.103ZM96.7534 13.6649L95.8075 12.6538H99.2323C100.167 12.6538 100.869 12.4526 101.336 12.0504C101.814 11.6481 102.054 11.0882 102.054 10.3706C102.054 9.64212 101.814 9.08219 101.336 8.69078C100.869 8.29937 100.167 8.10366 99.2323 8.10366H95.8075L96.7534 7.05991V13.6649Z" fill="white"/>
<path d="M105.763 17.7258L110.9 6.30971H112.988L118.141 17.7258H115.923L111.504 7.43501H112.352L107.948 17.7258H105.763ZM108.128 15.0838L108.699 13.4203H114.863L115.434 15.0838H108.128Z" fill="white"/>
<path d="M125.731 17.7258V6.30971H127.851V15.9318H133.82V17.7258H125.731Z" fill="white"/>
<path d="M134.711 17.7258L139.848 6.30971H141.936L147.089 17.7258H144.871L140.452 7.43501H141.3L136.896 17.7258H134.711ZM137.076 15.0838L137.647 13.4203H143.811L144.382 15.0838H137.076Z" fill="white"/>
<path d="M151.442 17.7258L147.659 6.30971H149.86L153.236 16.6331H152.144L155.65 6.30971H157.607L161.015 16.6331H159.955L163.413 6.30971H165.435L161.651 17.7258H159.401L156.286 8.41353H156.873L153.709 17.7258H151.442Z" fill="white"/>
</svg>
